<?xml version="1.0" encoding="UTF-8"?>
<svg width="40px" height="40px" viewBox="0 0 40 40" version="1.1" xmlns="http://www.w3.org/2000/svg" xmlns:xlink="http://www.w3.org/1999/xlink">
    <!-- Generator: Sketch 42 (36781) - http://www.bohemiancoding.com/sketch -->
    <title>Facebook-black</title>
    <desc>Created with Sketch.</desc>
    <defs></defs>
    <g id="Symbols" stroke="none" stroke-width="1" fill="none" fill-rule="evenodd">
        <g id="Desktop/Footer" transform="translate(-414.000000, -24.000000)" fill="#79A6D5">
            <path d="M435.365296,64 L416.207693,64 C414.988061,64 414,63.0113263 414,61.792169 L414,26.2076758 C414,24.9882081 414.988216,24 416.207693,24 L451.792462,24 C453.011629,24 454,24.9882081 454,26.2076758 L454,61.792169 C454,63.0114815 453.011474,64 451.792462,64 L441.599421,64 L441.599421,48.5097956 L446.798768,48.5097956 L447.577296,42.472988 L441.599421,42.472988 L441.599421,38.6188678 C441.599421,36.8710728 442.08476,35.6800081 444.591075,35.6800081 L447.787759,35.6786112 L447.787759,30.2792421 C447.234905,30.2056736 445.33732,30.0413086 443.129627,30.0413086 C438.520695,30.0413086 435.365296,32.8546052 435.365296,38.0210074 L435.365296,42.472988 L430.152601,42.472988 L430.152601,48.5097956 L435.365296,48.5097956 L435.365296,64 L435.365296,64 Z" id="Facebook"></path>
        </g>
    </g>
</svg>