<?xml version="1.0" encoding="UTF-8"?>
<svg width="40px" height="40px" viewBox="0 0 40 40" version="1.1" xmlns="http://www.w3.org/2000/svg" xmlns:xlink="http://www.w3.org/1999/xlink">
    <!-- Generator: Sketch 42 (36781) - http://www.bohemiancoding.com/sketch -->
    <title>Instagram-black</title>
    <desc>Created with Sketch.</desc>
    <defs></defs>
    <g id="Symbols" stroke="none" stroke-width="1" fill="none" fill-rule="evenodd">
        <g id="Desktop/Footer" transform="translate(-350.000000, -24.000000)" fill="#93D2C4">
            <path d="M370.00004,24 C375.431674,24 376.112762,24.0230231 378.245974,24.1203554 C380.374741,24.2174496 381.828613,24.5555721 383.10076,25.0500138 C384.415937,25.561048 385.531289,26.2449146 386.643227,27.3567733 C387.755085,28.4687114 388.438952,29.5840632 388.950066,30.89924 C389.444428,32.1713874 389.78255,33.6252588 389.879645,35.7540256 C389.976977,37.8872382 390,38.5683261 390,44.0000397 C390,49.4316739 389.976977,50.1127618 389.879645,52.2459744 C389.78255,54.3747412 389.444428,55.8286126 388.950066,57.10076 C388.438952,58.4159368 387.755085,59.5312886 386.643227,60.6432267 C385.531289,61.7550854 384.415937,62.438952 383.10076,62.9500656 C381.828613,63.4444279 380.374741,63.7825504 378.245974,63.8796446 C376.112762,63.9769769 375.431674,64 370.00004,64 C364.568326,64 363.887238,63.9769769 361.754026,63.8796446 C359.625259,63.7825504 358.171387,63.4444279 356.89924,62.9500656 C355.584063,62.438952 354.468711,61.7550854 353.356773,60.6432267 C352.244915,59.5312886 351.561048,58.4159368 351.050014,57.10076 C350.555572,55.8286126 350.21745,54.3747412 350.120355,52.2459744 C350.023023,50.1127618 350,49.4316739 350,44.0000397 C350,38.5683261 350.023023,37.8872382 350.120355,35.7540256 C350.21745,33.6252588 350.555572,32.1713874 351.050014,30.89924 C351.561048,29.5840632 352.244915,28.4687114 353.356773,27.3567733 C354.468711,26.2449146 355.584063,25.561048 356.89924,25.0500138 C358.171387,24.5555721 359.625259,24.2174496 361.754026,24.1203554 C363.887238,24.0230231 364.568326,24 370.00004,24 Z M370.00004,27.6035972 C364.659784,27.6035972 364.027203,27.6240004 361.918284,27.7202213 C359.968303,27.8091382 358.909319,28.1349553 358.204572,28.4088512 C357.271024,28.7716641 356.604782,29.2050548 355.904958,29.9049581 C355.205055,30.6047821 354.771664,31.271024 354.408851,32.2045725 C354.134955,32.9093186 353.809138,33.9683035 353.720221,35.9182837 C353.624,38.027203 353.603597,38.6597835 353.603597,44.0000397 C353.603597,49.3402165 353.624,49.972797 353.720221,52.0817163 C353.809138,54.0316965 354.134955,55.0906814 354.408851,55.7954275 C354.771664,56.728976 355.205134,57.3952179 355.904958,58.0950419 C356.604782,58.7949452 357.271024,59.2283359 358.204572,59.5911488 C358.909319,59.8650447 359.968303,60.1908618 361.918284,60.2797787 C364.026965,60.3759996 364.659387,60.3964028 370.00004,60.3964028 C375.340613,60.3964028 375.973115,60.3759996 378.081716,60.2797787 C380.031697,60.1908618 381.090681,59.8650447 381.795428,59.5911488 C382.728976,59.2283359 383.395218,58.7949452 384.095042,58.0950419 C384.794945,57.3952179 385.228336,56.728976 385.591149,55.7954275 C385.865045,55.0906814 386.190862,54.0316965 386.279779,52.0817163 C386.376,49.972797 386.396403,49.3402165 386.396403,44.0000397 C386.396403,38.6597835 386.376,38.027203 386.279779,35.9182837 C386.190862,33.9683035 385.865045,32.9093186 385.591149,32.2045725 C385.228336,31.271024 384.794945,30.6047821 384.095042,29.9049581 C383.395218,29.2050548 382.728976,28.7716641 381.795428,28.4088512 C381.090681,28.1349553 380.031697,27.8091382 378.081716,27.7202213 C375.972797,27.6240004 375.340216,27.6035972 370.00004,27.6035972 Z M370.00004,33.7297362 C375.672147,33.7297362 380.270264,38.3278534 380.270264,44.0000397 C380.270264,49.6721466 375.672147,54.2702638 370.00004,54.2702638 C364.327853,54.2702638 359.729736,49.6721466 359.729736,44.0000397 C359.729736,38.3278534 364.327853,33.7297362 370.00004,33.7297362 Z M370.00004,50.6666667 C373.681916,50.6666667 376.666667,47.6819155 376.666667,44.0000397 C376.666667,40.3180845 373.681916,37.3333333 370.00004,37.3333333 C366.318084,37.3333333 363.333333,40.3180845 363.333333,44.0000397 C363.333333,47.6819155 366.318084,50.6666667 370.00004,50.6666667 Z M383.07607,33.3239732 C383.07607,34.6494708 382.001524,35.7239367 380.676027,35.7239367 C379.350609,35.7239367 378.276063,34.6494708 378.276063,33.3239732 C378.276063,31.9984757 379.350609,30.9239304 380.676027,30.9239304 C382.001524,30.9239304 383.07607,31.9984757 383.07607,33.3239732 Z" id="Instagram"></path>
        </g>
    </g>
</svg>